<svg viewBox="-0.680 -0.680 389.360 69.190" fill="none" xmlns="http://www.w3.org/2000/svg">
<path d="M42.079 14.9565C42.079 17.2874 41.8113 20.0644 39.5696 20.0644C37.5956 20.0644 36.971 17.912 35.4543 15.6814C33.2126 12.3691 29.4542 6.45818 22.0265 6.45818C14.5988 6.45818 10.8292 11.5661 10.8292 16.4844C10.8292 32.7784 44.5883 25.0831 44.5883 47.1988C44.5883 56.3328 36.8818 67.7978 20.3201 67.7978C12.346 67.7978 4.38299 65.1992 1.87365 60.727C0.802991 58.8422 0.356883 56.7901 0.267661 54.8161C0.17844 52.8421 0 51.4145 0 49.7974C0 48.0018 1.07066 47.1988 2.24169 47.1988C4.57259 47.1988 4.92947 49.8866 8.33103 54.2696C11.108 57.8496 15.6695 62.7791 22.9299 62.7791C32.0639 62.7791 36.4469 56.6005 36.4469 50.9573C36.4469 33.0461 2.68779 41.5556 2.68779 20.1536C2.68779 10.4843 11.108 1.79637 24.7143 1.79637C30.9821 1.79637 37.0714 3.59195 39.67 6.45818C41.4656 8.4322 42.0901 12.1014 42.0901 14.9677L42.079 14.9565Z" fill="#132322"/>
<path d="M87.2912 61.338C88.0942 61.338 88.8192 61.8733 88.8192 62.7655C88.8192 64.4719 86.0422 67.7842 82.1053 67.7842C79.1498 67.7842 75.8375 65.9886 75.3021 60.7134C75.3021 60.535 75.3021 60.2673 75.1237 60.2673C74.9453 60.2673 74.9453 60.3566 74.7668 60.6242C71.5437 65.4645 65.9897 67.7842 60.4357 67.7842C51.7477 67.7842 46.4614 62.4086 46.4614 56.2301C46.4614 52.6501 48.257 48.8916 52.0154 46.4715C56.6772 43.3376 62.2201 42.3562 67.1496 40.0253C70.7296 38.4081 74.6776 35.8207 74.6776 30.9805C74.6776 26.6867 71.7221 23.642 66.8819 23.642C61.5063 23.642 58.7293 27.1328 56.4988 30.2667C54.7032 32.776 54.4355 34.382 52.4727 34.382C50.3202 34.382 49.9633 32.3188 49.9633 29.999C49.9633 27.6793 50.4094 24.8019 51.4912 23.4636C53.9114 20.3297 61.1606 19.0806 66.2685 19.0806C77.7334 19.0806 83.6443 25.5268 83.6443 34.3932C83.6443 41.3747 83.3767 49.6165 83.3767 56.7766C83.3767 59.9104 84.4473 61.338 86.2429 61.338H87.3136H87.2912ZM74.6665 41.5532C74.6665 41.3747 74.5772 41.1963 74.3988 41.1963C74.2203 41.1963 74.1311 41.2855 73.7742 41.5532C70.6403 43.9733 64.7294 45.4901 60.4357 48.3563C57.2125 50.5088 55.9635 53.2858 55.9635 55.784C55.9635 59.364 58.3836 62.5871 63.1235 62.5871C66.6142 62.5871 70.6515 60.6131 72.7928 56.2301C74.5884 52.4716 74.6776 48.5347 74.6776 43.0699V41.5532H74.6665Z" fill="#132322"/>
<path d="M136.987 62.7803C136.987 63.851 136.362 64.4867 134.567 64.8436C131.076 65.6466 128.567 66.4607 126.325 67.3529C125.433 67.7098 124.897 67.799 124.44 67.799C123.191 67.799 122.466 67.0853 122.466 65.3789V59.8249C122.466 59.6464 122.377 59.5572 122.198 59.5572C122.02 59.5572 121.931 59.7357 121.752 60.0033C118.797 64.5648 113.511 67.799 107.243 67.799C102.771 67.799 98.8225 66.1819 96.0455 62.7803C93.5362 59.7356 92.7332 55.5311 92.7332 50.1555V35.1106C92.7332 31.2629 92.7331 29.1997 91.8409 27.8614C90.4134 25.6197 86.733 26.2442 86.733 23.9245C86.733 23.0323 87.3576 22.4077 89.1532 22.0397C92.7332 21.2367 94.7964 20.6121 97.2165 19.6196C98.1087 19.2627 98.5548 19.0842 99.2798 19.0842C100.44 19.0842 101.254 19.798 101.254 21.4151V49.9771C101.254 56.1557 104.12 60.9959 110.566 60.9959C113.165 60.9959 115.942 60.1037 118.083 57.9512C121.395 54.6389 122.466 49.6202 122.466 35.9247C122.466 31.631 122.466 29.2108 121.574 27.8614C120.046 25.6197 116.466 26.2442 116.466 24.1029C116.466 23.1215 116.912 22.4858 118.886 22.0397C122.377 21.2367 124.886 20.5229 127.306 19.4411C127.931 19.1735 128.466 18.995 129.013 18.995C130.173 18.995 130.987 19.798 130.987 21.4151V51.7727C130.987 55.6203 130.987 57.6836 131.879 59.1111C133.128 61.0851 136.987 60.7282 136.987 62.7803Z" fill="#132322"/>
<path d="M157.051 67.7851C145.675 67.7851 136.631 59.6325 136.631 46.2047C136.631 32.7769 146.032 19.0703 160.988 19.0703C164.568 19.0703 169.765 19.9625 172.096 22.3827C173.434 23.721 173.802 26.2303 173.802 28.3828C173.802 32.5873 172.91 33.8476 171.204 33.8476C169.141 33.8476 168.694 31.6951 167.356 29.4646C166.018 27.2229 163.241 23.9106 158.49 23.9106C151.508 23.9106 145.597 30.7137 145.597 42.0894C145.597 51.9372 150.159 61.4281 160.375 61.4281C168.349 61.4281 171.393 55.428 173.445 55.428C174.427 55.428 175.063 56.231 175.063 57.1343C175.063 59.5544 168.884 67.7851 157.062 67.7851H157.051Z" fill="#132322"/>
<path d="M216.874 57.1343C216.874 59.6437 210.071 67.7851 198.16 67.7851C184.453 67.7851 176.401 57.0339 176.401 44.766C176.401 31.6951 185.713 19.0703 199.587 19.0703C212.48 19.0703 217.855 29.5427 217.855 35.8104C217.855 41.2752 215.167 42.0782 210.784 42.1675H186.516C185.892 42.1675 185.535 42.4351 185.535 43.0597V43.5058C185.535 52.9075 190.91 61.3277 200.401 61.3277C209.178 61.3277 212.758 55.2384 214.911 55.2384C215.981 55.2384 216.885 55.8629 216.885 57.1232L216.874 57.1343ZM185.892 37.1599C185.892 37.606 186.07 37.6952 186.605 37.6952H201.204C206.401 37.6952 208.732 36.6246 208.732 32.4981C208.732 28.3716 205.152 23.4533 198.795 23.4533C191.635 23.4533 187.063 29.5427 185.992 36.1673C185.903 36.8811 185.903 37.0595 185.903 37.1488L185.892 37.1599Z" fill="#132322"/>
<path d="M302.292 61.3412H301.222C299.426 61.3412 298.355 59.9137 298.355 56.7798C298.355 49.6198 298.623 41.3779 298.623 34.3964C298.623 25.53 292.712 19.0838 281.247 19.0838C276.139 19.0838 268.89 20.3329 266.47 23.4668C265.399 24.8051 264.953 27.6713 264.953 30.0022C264.953 32.3331 265.31 34.3852 267.463 34.3852C269.437 34.3852 269.704 32.7681 271.489 30.2699C273.73 27.136 276.507 23.6452 281.872 23.6452C286.712 23.6452 289.668 26.6899 289.668 30.9837C289.668 35.8239 285.731 38.4113 282.151 40.0285C277.221 42.3594 268.723 44.155 263.537 48.761C256.834 54.7165 259.41 62.1442 241.321 62.1442C239.079 62.1442 236.481 62.055 235.499 61.252C234.161 60.1813 233.982 58.2965 233.982 54.0028V16.5744C233.982 10.1282 234.161 8.1542 236.313 6.9051C237.752 6.01289 239.18 5.83444 239.18 4.39575C239.18 3.50354 238.287 2.87899 236.67 2.87899H222.339C220.722 2.87899 219.83 3.50354 219.83 4.39575C219.83 5.82329 221.268 6.01289 222.696 6.9051C224.759 8.1542 225.027 10.1282 225.027 16.5744V51.4042C225.027 55.3411 224.848 58.3857 224.135 60.0029C222.517 63.5829 219.384 63.1368 219.384 65.1108C219.384 66.3599 220.543 66.8172 222.161 66.8172H242.581C251.626 66.8172 254.938 67.5309 257.894 67.5309C261.351 67.5309 262.388 64.9547 263.035 61.765C265.199 65.3115 269.537 67.7986 275.448 67.7986C281.002 67.7986 286.556 65.4677 289.779 60.6386C289.958 60.3709 289.958 60.2817 290.136 60.2817C290.314 60.2817 290.314 60.5494 290.314 60.7278C290.85 66.0142 294.162 67.7986 297.118 67.7986C301.054 67.7986 303.831 64.4862 303.831 62.7799C303.831 61.8877 303.118 61.3523 302.304 61.3523L302.292 61.3412ZM289.668 43.0731C289.668 48.538 289.578 52.4748 287.783 56.2333C285.63 60.6163 281.604 62.5903 278.113 62.5903C273.362 62.5903 270.953 59.3672 270.953 55.7872C270.953 53.2778 272.203 50.5008 275.426 48.3595C279.719 45.4933 285.63 43.9765 288.764 41.5564C289.121 41.2887 289.21 41.1995 289.389 41.1995C289.567 41.1995 289.656 41.3779 289.656 41.5564V43.0731H289.668Z" fill="#132322"/>
<path d="M327.542 67.7858C318.854 67.7858 315.72 63.4028 313.657 63.4028C311.058 63.4028 311.593 67.7858 309.006 67.7858C307.757 67.7858 307.032 66.8044 307.032 64.5627V14.4204C307.032 11.4649 307.032 10.3051 306.229 8.86636C304.712 6.35701 301.032 6.98156 301.032 4.92947C301.032 4.03726 301.478 3.40156 303.541 2.95545C306.853 2.24168 309.095 1.52791 311.604 0.535327C312.497 0.178442 313.043 0 313.757 0C314.828 0 315.552 0.624549 315.552 2.24168V26.3314C315.552 26.7775 315.731 27.0452 315.999 27.0452C316.266 27.0452 316.445 26.8667 316.891 26.3314C320.471 22.3053 325.579 19.0822 331.49 19.0822C342.419 19.0822 349.847 28.3054 349.847 41.1087C349.847 53.9119 342.14 67.797 327.553 67.797L327.542 67.7858ZM328.356 63.3136C337.757 63.3136 340.981 53.1089 340.981 44.3318C340.981 34.1271 336.241 25.5284 327.999 25.5284C318.686 25.5284 315.552 34.9301 315.552 43.9749C315.552 56.3321 320.839 63.3136 328.356 63.3136Z" fill="#132322"/>
<path d="M354.854 50.9549C356.918 50.9549 357.899 53.7319 359.873 56.5089C362.204 59.732 365.427 63.1336 370.981 63.1336C376.535 63.1336 380.026 59.6428 380.026 55.6167C380.026 43.8841 354.152 49.5273 354.152 33.5902C354.152 24.9023 362.215 19.0806 372.063 19.0806C376.446 19.0806 380.662 20.1512 382.725 21.6792C385.056 23.3855 385.591 26.2406 385.591 28.4823C385.591 30.5455 385.502 33.6794 382.903 33.6794C380.751 33.6794 380.572 31.7946 378.699 29.0176C376.903 26.419 374.316 23.7312 369.832 23.7312C366.074 23.7312 362.037 26.2406 362.037 30.4451C362.037 35.9992 368.661 37.2483 375.197 39.4899C381.643 41.6424 388 44.6871 388 52.8285C388 60.97 380.483 67.7842 369.286 67.7842C363.018 67.7842 357.196 65.721 354.865 63.4012C352.981 61.5164 352.445 57.5795 352.445 54.8025C352.445 52.8285 352.802 50.9549 354.865 50.9549H354.854Z" fill="#132322"/>
</svg>